<?xml version="1.0" standalone="no"?>
<!DOCTYPE svg PUBLIC "-//W3C//DTD SVG 20010904//EN"
 "http://www.w3.org/TR/2001/REC-SVG-20010904/DTD/svg10.dtd">
<svg version="1.0" xmlns="http://www.w3.org/2000/svg"
 width="512.000000pt" height="512.000000pt" viewBox="0 0 512.000000 512.000000"
 preserveAspectRatio="xMidYMid meet">
<metadata>
Created by potrace 1.14, written by Peter Selinger 2001-2017
</metadata>
<g transform="translate(0.000000,512.000000) scale(0.100000,-0.100000)"
fill="#000000" stroke="none">
<path d="M2249 5116 c-2 -2 -40 -6 -84 -10 -207 -15 -328 -52 -441 -132 -155
-110 -245 -288 -246 -487 l0 -69 -70 -76 c-96 -105 -224 -278 -320 -430 -44
-70 -84 -136 -89 -147 -5 -11 -21 -40 -35 -65 -176 -309 -374 -779 -543 -1285
-114 -343 -276 -911 -289 -1014 -12 -93 -6 -1140 6 -1186 18 -63 67 -132 117
-164 173 -109 398 -27 450 164 5 17 10 116 11 220 1 105 3 198 3 207 1 15 3
15 34 0 48 -25 169 -23 228 5 60 27 122 89 151 150 21 45 22 63 24 266 1 216
2 217 25 236 13 10 83 64 154 120 72 56 137 107 145 114 36 30 260 197 264
197 2 0 5 -81 6 -179 1 -215 11 -257 75 -329 60 -66 127 -95 220 -95 122 1
218 62 269 172 20 44 21 63 24 446 1 220 4 405 7 412 9 25 685 460 920 593
509 287 865 455 1226 578 241 82 318 123 407 213 97 99 116 195 62 319 -75
174 -241 419 -297 441 -33 12 -79 -8 -93 -40 -14 -34 -3 -66 38 -112 62 -72
133 -183 104 -165 -4 2 -43 -2 -87 -9 -154 -27 -293 -118 -377 -248 -4 -6 -48
31 -104 87 -182 181 -401 340 -635 459 -130 66 -157 77 -307 133 -151 55 -374
112 -507 129 -27 3 -57 8 -65 10 -63 17 -420 26 -557 14 -150 -13 -316 -39
-417 -65 l-29 -7 6 64 c9 85 62 192 127 257 123 123 279 157 710 157 204 0
269 -3 425 -20 61 -7 273 -42 335 -56 25 -6 56 -13 70 -15 56 -11 182 -47 300
-86 277 -90 513 -210 713 -360 95 -72 126 -80 161 -45 57 57 22 108 -159 228
-407 270 -847 415 -1501 494 -48 6 -560 16 -565 11z m290 -711 c94 -10 129
-14 191 -25 30 -5 69 -12 87 -15 78 -13 269 -67 354 -101 370 -145 763 -430
1058 -769 63 -71 70 -85 48 -85 -43 0 -612 -265 -837 -390 -52 -29 -119 -66
-149 -82 -212 -118 -639 -384 -905 -565 -119 -81 -164 -117 -178 -143 -16 -32
-18 -70 -18 -440 -1 -388 -2 -405 -21 -440 -53 -94 -180 -102 -242 -16 -21 29
-22 44 -27 236 l-5 205 -28 37 c-48 62 -132 82 -198 48 -20 -11 -211 -151
-269 -197 -8 -7 -91 -73 -185 -146 -93 -74 -178 -148 -188 -165 -16 -28 -19
-59 -20 -254 -2 -211 -3 -225 -24 -259 -43 -68 -140 -88 -203 -41 -44 33 -60
73 -64 161 -5 96 -20 121 -73 121 -36 0 -72 -28 -74 -57 0 -10 -1 -187 -2
-393 -2 -355 -3 -377 -22 -409 -66 -111 -236 -83 -262 44 -5 22 -8 283 -7 580
l1 540 32 129 c97 392 320 1086 436 1351 7 17 30 71 50 120 21 50 53 123 71
163 19 41 34 78 34 83 0 5 22 -5 48 -21 63 -39 160 -74 245 -90 64 -12 214 -9
276 4 201 44 364 150 455 295 61 96 92 256 71 366 -18 96 -76 209 -143 278
-59 62 -159 129 -243 162 l-78 32 37 36 c34 34 48 39 157 61 66 13 145 27 175
31 30 4 64 9 75 11 11 2 67 7 125 10 58 4 106 8 108 9 5 4 267 -3 331 -10z
m-1035 -300 c82 -18 225 -115 274 -187 155 -227 46 -517 -230 -615 -108 -39
-262 -51 -363 -28 -47 10 -143 51 -180 76 l-34 24 71 135 c91 173 214 378 307
509 80 113 66 105 155 86z m3283 -286 c36 -14 55 -52 47 -96 -12 -61 -109
-152 -203 -188 -165 -62 -296 -16 -260 94 15 46 100 129 164 161 88 43 186 54
252 29z"/>
<path d="M2993 3934 c-274 -46 -474 -218 -538 -463 -45 -175 11 -356 153 -496
l51 -49 -85 -52 c-111 -68 -124 -80 -124 -120 0 -36 37 -74 72 -74 11 0 124
62 251 139 128 76 286 169 352 206 142 80 581 296 713 351 51 21 102 47 113
57 27 25 25 78 -4 105 -30 28 -44 28 -117 -2 l-60 -24 -20 46 c-49 112 -153
227 -260 288 -146 83 -332 116 -497 88z m266 -158 c149 -36 275 -126 331 -236
48 -95 63 -78 -153 -184 -106 -52 -235 -118 -287 -146 -52 -29 -120 -65 -150
-82 -30 -16 -62 -33 -70 -38 -58 -36 -123 -70 -134 -70 -23 0 -108 83 -146
142 -45 69 -65 155 -57 238 4 33 11 68 15 77 5 10 20 40 33 66 51 102 182 196
324 231 59 15 238 16 294 2z"/>
<path d="M2974 3626 c-59 -50 -21 -133 59 -127 56 4 78 97 31 128 -40 25 -60
25 -90 -1z"/>
<path d="M3350 3540 c-11 -11 -21 -23 -21 -27 -10 -59 20 -103 69 -103 65 0
97 89 46 129 -34 26 -68 27 -94 1z"/>
<path d="M1235 2813 c-176 -36 -314 -119 -409 -246 -42 -57 -45 -89 -11 -122
33 -34 70 -32 103 4 94 100 120 124 168 152 246 140 609 75 754 -136 l30 -44
-57 -42 c-32 -23 -98 -72 -148 -108 -91 -66 -333 -254 -458 -356 l-69 -55 -41
25 c-139 82 -216 192 -232 330 -8 71 -12 81 -41 93 -58 27 -106 -3 -110 -66
-7 -161 102 -355 259 -458 20 -13 37 -28 36 -32 0 -4 -53 -52 -118 -107 -65
-55 -126 -112 -135 -127 -20 -33 -13 -72 17 -93 41 -29 70 -18 153 52 43 37
87 74 98 83 10 8 23 20 30 25 30 28 315 262 421 346 227 180 473 360 677 497
112 75 117 80 123 113 8 42 -34 89 -80 89 -7 0 -53 -27 -102 -60 -48 -33 -90
-60 -93 -60 -3 0 -25 26 -49 58 -88 114 -227 203 -376 238 -93 21 -252 25
-340 7z"/>
<path d="M1057 2248 c-22 -18 -36 -59 -27 -83 29 -78 129 -67 142 15 9 58 -67
103 -115 68z"/>
<path d="M1453 3942 c-24 -4 -63 -46 -63 -68 0 -26 23 -64 44 -71 32 -11 39
-10 67 3 74 36 33 150 -48 136z"/>
<path d="M1399 3547 c-19 -15 -36 -47 -33 -64 1 -7 2 -17 3 -23 2 -16 44 -50
62 -50 54 0 95 51 78 96 -16 45 -76 67 -110 41z"/>
</g>
</svg>
